<svg xmlns="http://www.w3.org/2000/svg" viewBox="0 0 378.81 202.7"><defs><style>.cls-1{fill:none;stroke:#1d1d1b;stroke-miterlimit:10;}</style></defs><g id="Warstwa_2" data-name="Warstwa 2"><circle class="cls-1" cx="187.39" cy="101.25" r="100.56"/><path class="cls-1" d="M104,202.63C147,185,195,205,223,243c19,27,22,60,10,90a48.75,48.75,0,0,0-3,7c-3,4-4,9-7,13-26,39-77,55-119.08,38.26" transform="translate(-103.74 -195.66)"/><path class="cls-1" d="M63.29,230.56" transform="translate(-103.74 -195.66)"/><path class="cls-1" d="M482.18,204.09C457,193.78,428,193.86,403.09,205a100.5,100.5,0,0,0-6.7,180.58c23.13,12.39,51.17,15.16,76.14,6.88a96.11,96.11,0,0,0,9.81-3.88" transform="translate(-103.74 -195.66)"/><path class="cls-1" d="M104.58,390.41" transform="translate(-103.74 -195.66)"/><path class="cls-1" d="M104.58,202.34" transform="translate(-103.74 -195.66)"/></g></svg>