<svg width="32" height="29" viewBox="0 0 32 29" fill="none" xmlns="http://www.w3.org/2000/svg">
<path d="M30.8703 27.8215C31.1425 27.8013 31.3464 27.5591 31.3257 27.2805L30.9886 22.7412C30.9679 22.4626 30.7305 22.2532 30.4583 22.2734C30.1861 22.2936 29.9823 22.5358 30.003 22.8144L30.3026 26.8494L26.3601 27.1422C26.0879 27.1624 25.8841 27.4046 25.9048 27.6831C25.9254 27.9617 26.1629 28.1711 26.435 28.1509L30.8703 27.8215ZM0.678015 1.38277L30.5109 27.6997L31.1549 26.9346L1.32198 0.617719L0.678015 1.38277Z" fill="black"/>
<path d="M31.3257 1.03709C31.3464 0.758528 31.1425 0.516326 30.8703 0.496113L26.435 0.166722C26.1629 0.146509 25.9254 0.355939 25.9048 0.634497C25.8841 0.913055 26.0879 1.15526 26.3601 1.17547L30.3026 1.46826L30.003 5.50325C29.9823 5.78181 30.1861 6.02401 30.4583 6.04422C30.7305 6.06444 30.9679 5.85501 30.9886 5.57645L31.3257 1.03709ZM1.32198 27.6999L31.1549 1.38301L30.5109 0.617961L0.678015 26.9349L1.32198 27.6999Z" fill="black"/>
</svg>
