<svg width="46" height="46" viewBox="0 0 46 46" fill="none" xmlns="http://www.w3.org/2000/svg">
<path d="M22.6752 2.72119C11.6655 2.72119 2.72095 11.6657 2.72095 22.6754C2.72095 32.6699 10.0927 40.9411 19.6937 42.3834L20.7354 42.541V26.8172H16.0214V23.6249H20.7354V19.3857C20.7354 16.7753 21.3618 15.056 22.3988 13.9773C23.4358 12.8987 24.9681 12.3546 27.1004 12.3546C28.8054 12.3546 29.4687 12.4579 30.0995 12.5353V15.1483H27.8798C26.6204 15.1483 25.5871 15.851 25.0508 16.7869C24.5144 17.7229 24.3475 18.8404 24.3475 19.9792V23.6232H29.9011L29.4069 26.8154H24.3475V42.5659L25.3767 42.4259C35.1142 41.1053 42.6294 32.7676 42.6294 22.6754C42.6294 11.6657 33.6848 2.72119 22.6752 2.72119ZM22.6752 4.53521C32.7045 4.53521 40.8154 12.6461 40.8154 22.6754C40.8154 31.5004 34.4988 38.7583 26.1615 40.3922V28.6294H30.9623L32.0163 21.8091H26.1615V19.9792C26.1615 19.0382 26.3337 18.195 26.6238 17.6886C26.914 17.1822 27.1938 16.9623 27.8798 16.9623H31.9136V10.8931L31.127 10.7868C30.583 10.7132 29.341 10.5406 27.1004 10.5406C24.6486 10.5406 22.5442 11.2085 21.0914 12.7196C19.6387 14.2306 18.9213 16.4806 18.9213 19.3857V21.8109H14.2074V28.6312H18.9213V40.3355C10.718 38.5978 4.53497 31.4049 4.53497 22.6754C4.53497 12.6461 12.6458 4.53521 22.6752 4.53521Z" fill="black"/>
</svg>
