<svg width="41" height="41" viewBox="0 0 41 41" fill="none" xmlns="http://www.w3.org/2000/svg">
<path d="M12.0269 0.721191C5.52593 0.721191 0.235809 6.01131 0.235809 12.5123V28.8385C0.235809 35.3395 5.52593 40.6296 12.0269 40.6296H28.3531C34.8541 40.6296 40.1442 35.3395 40.1442 28.8385V12.5123C40.1442 6.01131 34.8541 0.721191 28.3531 0.721191H12.0269ZM12.0269 2.53521H28.3531C33.8736 2.53521 38.3302 6.99182 38.3302 12.5123V28.8385C38.3302 34.359 33.8736 38.8156 28.3531 38.8156H12.0269C6.50644 38.8156 2.04983 34.359 2.04983 28.8385V12.5123C2.04983 6.99182 6.50644 2.53521 12.0269 2.53521ZM31.0741 7.97727C30.593 7.97727 30.1316 8.16839 29.7914 8.50858C29.4512 8.84878 29.2601 9.31018 29.2601 9.79129C29.2601 10.2724 29.4512 10.7338 29.7914 11.074C30.1316 11.4142 30.593 11.6053 31.0741 11.6053C31.5553 11.6053 32.0167 11.4142 32.3568 11.074C32.697 10.7338 32.8882 10.2724 32.8882 9.79129C32.8882 9.31018 32.697 8.84878 32.3568 8.50858C32.0167 8.16839 31.5553 7.97727 31.0741 7.97727ZM20.19 10.6983C14.6906 10.6983 10.2129 15.1759 10.2129 20.6754C10.2129 26.1749 14.6906 30.6525 20.19 30.6525C25.6895 30.6525 30.1671 26.1749 30.1671 20.6754C30.1671 15.1759 25.6895 10.6983 20.19 10.6983ZM20.19 12.5123C24.7091 12.5123 28.3531 16.1563 28.3531 20.6754C28.3531 25.1945 24.7091 28.8385 20.19 28.8385C15.6709 28.8385 12.0269 25.1945 12.0269 20.6754C12.0269 16.1563 15.6709 12.5123 20.19 12.5123Z" fill="black"/>
</svg>
