<svg width="94" height="37" viewBox="0 0 94 37" fill="none" xmlns="http://www.w3.org/2000/svg">
<path d="M27.8 4.76H33.82V5.04H31.74L35.86 16.64H35.9L38.56 9.26L37.04 5.04H35.36V4.76H41.36V5.04H39.18L43.3 16.64H43.34L47.54 5.04H45.4V4.76H49.68V5.04H47.88L42.7 19.3H42.2L38.76 9.7H38.72L35.24 19.3H34.7L29.6 5.04H27.8V4.76ZM50.0844 18.72H52.3044V5.04H50.0844V4.76H56.3644V5.04H54.3044V11.4H54.5044L60.5444 5.04H58.4644V4.76H62.6044V5.04H60.9444L55.8644 10.42L63.1244 18.72H64.4444V19H58.6644V18.72H60.4644L54.4644 11.68H54.3044V18.72H56.3644V19H50.0844V18.72Z" fill="black"/>
<path d="M0.5 27.12L0.52 27H2.6C3.42 27 4.02667 27.14 4.42 27.42C4.82 27.7 5.02 28.23 5.02 29.01C5.02 29.7833 4.81333 30.3567 4.4 30.73C3.99333 31.0967 3.39333 31.28 2.6 31.28H1.83V33.81L2.52 33.85C2.52 33.8567 2.51667 33.9067 2.51 34L0.51 34.01C0.51 33.95 0.513333 33.9033 0.52 33.87L1.04 33.8C1.08667 33.7933 1.12333 33.7633 1.15 33.71V27.31C1.12333 27.25 1.08667 27.2167 1.04 27.21L0.51 27.15C0.503333 27.1433 0.5 27.1333 0.5 27.12ZM2.55 27.15H1.83V31.13H2.55C3.15 31.13 3.59667 30.97 3.89 30.65C4.19 30.33 4.34 29.7967 4.34 29.05C4.34 28.2967 4.19333 27.7933 3.9 27.54C3.60667 27.28 3.15667 27.15 2.55 27.15ZM6.82953 29.41V30.21C7.3562 29.4367 7.87286 29.0433 8.37953 29.03C8.41953 29.03 8.45953 29.03 8.49953 29.03L9.05953 29.1L8.79953 29.7C8.67286 29.5733 8.50953 29.51 8.30953 29.51C7.82286 29.5167 7.32953 29.84 6.82953 30.48V33.8L7.67953 33.85C7.67953 33.8567 7.6762 33.9067 7.66953 34L5.56953 34.01C5.56953 33.95 5.57286 33.9033 5.57953 33.87L6.09953 33.8C6.15286 33.7933 6.17953 33.7467 6.17953 33.66V29.32C6.1662 29.2733 6.1462 29.25 6.11953 29.25L5.51953 29.23L5.52953 29.09C5.88953 29.03 6.16286 29 6.34953 29C6.5362 29 6.66286 29.0433 6.72953 29.13C6.7962 29.2167 6.82953 29.31 6.82953 29.41ZM11.6472 34.04C10.9539 34.04 10.3905 33.84 9.95719 33.44C9.53052 33.04 9.31719 32.43 9.31719 31.61C9.31719 30.7833 9.54385 30.1367 9.99719 29.67C10.4572 29.1967 11.0339 28.96 11.7272 28.96C12.4205 28.96 12.9839 29.16 13.4172 29.56C13.8505 29.96 14.0672 30.5733 14.0672 31.4C14.0672 32.22 13.8372 32.8667 13.3772 33.34C12.9239 33.8067 12.3472 34.04 11.6472 34.04ZM11.7172 29.14C11.2172 29.14 10.8005 29.3567 10.4672 29.79C10.1339 30.2233 9.96719 30.8133 9.96719 31.56C9.96719 32.3 10.1239 32.87 10.4372 33.27C10.7572 33.6633 11.1672 33.86 11.6672 33.86C12.1672 33.86 12.5839 33.6433 12.9172 33.21C13.2505 32.7767 13.4172 32.19 13.4172 31.45C13.4172 30.71 13.2572 30.14 12.9372 29.74C12.6239 29.34 12.2172 29.14 11.7172 29.14ZM19.0515 26.91V33.48C19.0515 33.6867 19.1048 33.79 19.2115 33.79L19.8115 33.82L19.8015 33.97C19.4815 34.0233 19.1482 34.05 18.8015 34.05C18.7282 34.0433 18.6482 34.0067 18.5615 33.94C18.4815 33.8733 18.4348 33.7867 18.4215 33.68C18.0415 33.92 17.6015 34.04 17.1015 34.04C16.6148 34.04 16.1648 33.9033 15.7515 33.63C15.5182 33.4767 15.3282 33.2367 15.1815 32.91C15.0415 32.5767 14.9715 32.1733 14.9715 31.7C14.9715 30.8267 15.1948 30.16 15.6415 29.7C16.1148 29.2067 16.6548 28.96 17.2615 28.96C17.6348 28.96 18.0148 29.0567 18.4015 29.25V26.86C18.4015 26.7867 18.3815 26.75 18.3415 26.75L17.7315 26.73L17.7415 26.59C18.1615 26.53 18.4482 26.5 18.6015 26.5C18.7615 26.5 18.8748 26.5433 18.9415 26.63C19.0148 26.7167 19.0515 26.81 19.0515 26.91ZM17.2315 33.86C17.6382 33.86 18.0282 33.77 18.4015 33.59V29.41C18.1082 29.23 17.8182 29.14 17.5315 29.14C16.9582 29.14 16.4948 29.36 16.1415 29.8C15.7948 30.24 15.6215 30.87 15.6215 31.69C15.6215 33.1367 16.1582 33.86 17.2315 33.86ZM20.3268 29.16L20.3168 29.01L21.6668 29V32.48C21.6668 32.74 21.7035 32.9667 21.7768 33.16C21.8501 33.3467 21.9301 33.4833 22.0168 33.57C22.1101 33.6567 22.2168 33.7233 22.3368 33.77C22.5235 33.8367 22.6801 33.8633 22.8068 33.85C23.2135 33.8433 23.6768 33.6333 24.1968 33.22V29.35C24.1701 29.27 24.1135 29.2233 24.0268 29.21L23.5068 29.16C23.5001 29.12 23.4968 29.07 23.4968 29.01L24.8468 29V33.54C24.8601 33.7067 24.9135 33.79 25.0068 33.79L25.6068 33.82L25.5968 33.97C25.2768 34.0233 24.9435 34.05 24.5968 34.05C24.5168 34.0433 24.4301 34 24.3368 33.92C24.2435 33.8333 24.1968 33.7267 24.1968 33.6V33.42C23.5901 33.8267 23.0168 34.03 22.4768 34.03C22.2501 34.03 21.9835 33.9733 21.6768 33.86C21.4768 33.7867 21.3168 33.65 21.1968 33.45C21.0768 33.2433 21.0168 32.9867 21.0168 32.68V29.36C21.0168 29.3267 20.9968 29.2967 20.9568 29.27C20.9235 29.2367 20.8868 29.2167 20.8468 29.21L20.3268 29.16ZM29.2109 29.14C28.6443 29.14 28.1843 29.3633 27.8309 29.81C27.4843 30.25 27.3109 30.8767 27.3109 31.69C27.3109 33.1367 27.8609 33.86 28.9609 33.86C29.3943 33.86 29.7643 33.82 30.0709 33.74C30.3776 33.6533 30.5443 33.6 30.5709 33.58L30.6409 33.69C30.4876 33.79 30.2343 33.8733 29.8809 33.94C29.5276 34.0067 29.2076 34.04 28.9209 34.04C28.6343 34.04 28.3743 34.01 28.1409 33.95C27.9076 33.89 27.6709 33.7833 27.4309 33.63C27.1976 33.4767 27.0109 33.2367 26.8709 32.91C26.7309 32.5767 26.6609 32.1733 26.6609 31.7C26.6609 30.8267 26.8843 30.1667 27.3309 29.72C27.8309 29.2067 28.4609 28.95 29.2209 28.95C29.4609 28.95 29.7143 28.9833 29.9809 29.05C30.2543 29.11 30.4643 29.2067 30.6109 29.34V30.65L30.4209 30.72L30.3709 29.67C30.2243 29.5167 30.0443 29.39 29.8309 29.29C29.6243 29.19 29.4176 29.14 29.2109 29.14ZM33.6175 33.81L34.0075 33.79L34.0375 33.89C34.0308 33.89 33.9842 33.9 33.8975 33.92C33.6975 33.9667 33.4742 33.99 33.2275 33.99C33.0008 33.9767 32.7942 33.94 32.6075 33.88C32.4208 33.8133 32.2475 33.68 32.0875 33.48C31.9275 33.2733 31.8475 33.01 31.8475 32.69V29.18H31.3375L31.4175 29.1L31.8575 29.01L31.9375 28.05L32.4975 28V29H33.7075V29.18H32.4975V32.52C32.4975 33.0267 32.6042 33.37 32.8175 33.55C33.0308 33.7233 33.2975 33.81 33.6175 33.81ZM37.9219 27.12L37.9419 27H40.0219C40.8419 27 41.4485 27.14 41.8419 27.42C42.2419 27.7 42.4419 28.23 42.4419 29.01C42.4419 29.7833 42.2352 30.3567 41.8219 30.73C41.4152 31.0967 40.8152 31.28 40.0219 31.28H39.2519V33.81L39.9419 33.85C39.9419 33.8567 39.9385 33.9067 39.9319 34L37.9319 34.01C37.9319 33.95 37.9352 33.9033 37.9419 33.87L38.4619 33.8C38.5085 33.7933 38.5452 33.7633 38.5719 33.71V27.31C38.5452 27.25 38.5085 27.2167 38.4619 27.21L37.9319 27.15C37.9252 27.1433 37.9219 27.1333 37.9219 27.12ZM39.9719 27.15H39.2519V31.13H39.9719C40.5719 31.13 41.0185 30.97 41.3119 30.65C41.6119 30.33 41.7619 29.7967 41.7619 29.05C41.7619 28.2967 41.6152 27.7933 41.3219 27.54C41.0285 27.28 40.5785 27.15 39.9719 27.15ZM44.3514 26.91V29.62C45.2247 29.02 46.0147 28.8333 46.7214 29.06C46.8814 29.1067 47.0181 29.1767 47.1314 29.27C47.2514 29.3567 47.3547 29.49 47.4414 29.67C47.5281 29.85 47.5714 30.0667 47.5714 30.32V33.8L48.3214 33.85C48.3214 33.8567 48.3181 33.9067 48.3114 34L46.3114 34.01C46.3114 33.95 46.3147 33.9033 46.3214 33.87L46.8414 33.8C46.8814 33.8 46.9081 33.77 46.9214 33.71V30.58C46.9214 30.32 46.8847 30.0967 46.8114 29.91C46.7447 29.7167 46.6647 29.5767 46.5714 29.49C46.4781 29.4033 46.3681 29.3367 46.2414 29.29C46.0681 29.2233 45.9147 29.1967 45.7814 29.21C45.3481 29.2233 44.8714 29.4 44.3514 29.74V33.8L45.1014 33.85C45.1014 33.8567 45.0981 33.9067 45.0914 34L43.0914 34.01C43.0914 33.95 43.0947 33.9033 43.1014 33.87L43.6214 33.8C43.6747 33.7933 43.7014 33.7467 43.7014 33.66V26.86C43.7014 26.7867 43.6814 26.75 43.6414 26.75L43.0414 26.73L43.0514 26.59C43.4114 26.53 43.6847 26.5 43.8714 26.5C44.0581 26.5 44.1847 26.5433 44.2514 26.63C44.3181 26.7167 44.3514 26.81 44.3514 26.91ZM50.9441 34.04C50.2507 34.04 49.6874 33.84 49.2541 33.44C48.8274 33.04 48.6141 32.43 48.6141 31.61C48.6141 30.7833 48.8407 30.1367 49.2941 29.67C49.7541 29.1967 50.3307 28.96 51.0241 28.96C51.7174 28.96 52.2807 29.16 52.7141 29.56C53.1474 29.96 53.3641 30.5733 53.3641 31.4C53.3641 32.22 53.1341 32.8667 52.6741 33.34C52.2207 33.8067 51.6441 34.04 50.9441 34.04ZM51.0141 29.14C50.5141 29.14 50.0974 29.3567 49.7641 29.79C49.4307 30.2233 49.2641 30.8133 49.2641 31.56C49.2641 32.3 49.4207 32.87 49.7341 33.27C50.0541 33.6633 50.4641 33.86 50.9641 33.86C51.4641 33.86 51.8807 33.6433 52.2141 33.21C52.5474 32.7767 52.7141 32.19 52.7141 31.45C52.7141 30.71 52.5541 30.14 52.2341 29.74C51.9207 29.34 51.5141 29.14 51.0141 29.14ZM56.1566 33.81L56.5466 33.79L56.5766 33.89C56.5699 33.89 56.5232 33.9 56.4366 33.92C56.2366 33.9667 56.0132 33.99 55.7666 33.99C55.5399 33.9767 55.3332 33.94 55.1466 33.88C54.9599 33.8133 54.7866 33.68 54.6266 33.48C54.4666 33.2733 54.3866 33.01 54.3866 32.69V29.18H53.8766L53.9566 29.1L54.3966 29.01L54.4766 28.05L55.0366 28V29H56.2466V29.18H55.0366V32.52C55.0366 33.0267 55.1432 33.37 55.3566 33.55C55.5699 33.7233 55.8366 33.81 56.1566 33.81ZM59.2937 34.04C58.6003 34.04 58.037 33.84 57.6037 33.44C57.177 33.04 56.9637 32.43 56.9637 31.61C56.9637 30.7833 57.1903 30.1367 57.6437 29.67C58.1037 29.1967 58.6803 28.96 59.3737 28.96C60.067 28.96 60.6303 29.16 61.0637 29.56C61.497 29.96 61.7137 30.5733 61.7137 31.4C61.7137 32.22 61.4837 32.8667 61.0237 33.34C60.5703 33.8067 59.9937 34.04 59.2937 34.04ZM59.3637 29.14C58.8637 29.14 58.447 29.3567 58.1137 29.79C57.7803 30.2233 57.6137 30.8133 57.6137 31.56C57.6137 32.3 57.7703 32.87 58.0837 33.27C58.4037 33.6633 58.8137 33.86 59.3137 33.86C59.8137 33.86 60.2303 33.6433 60.5637 33.21C60.897 32.7767 61.0637 32.19 61.0637 31.45C61.0637 30.71 60.9037 30.14 60.5837 29.74C60.2703 29.34 59.8637 29.14 59.3637 29.14ZM62.1288 35.03C62.1288 34.4033 62.5088 33.8667 63.2688 33.42C62.9421 33.24 62.7788 33.0133 62.7788 32.74C62.7788 32.46 62.9121 32.2433 63.1788 32.09C62.6588 31.8567 62.3988 31.3633 62.3988 30.61C62.3988 30.0967 62.5921 29.6933 62.9788 29.4C63.3654 29.1067 63.8588 28.96 64.4588 28.96C64.7388 28.96 65.0054 28.9933 65.2588 29.06L66.9288 28.96L66.9088 29.34L65.7188 29.27C66.1521 29.55 66.3688 29.9733 66.3688 30.54C66.3688 31.1067 66.1854 31.54 65.8188 31.84C65.4521 32.14 64.9788 32.29 64.3988 32.29C64.0121 32.29 63.6954 32.2567 63.4488 32.19C63.3354 32.3167 63.2788 32.4633 63.2788 32.63C63.2788 32.93 63.3988 33.1467 63.6388 33.28C63.8988 33.4333 64.3588 33.5667 65.0188 33.68C65.1721 33.7067 65.2821 33.73 65.3488 33.75C65.4221 33.7633 65.5254 33.7833 65.6588 33.81C65.7921 33.8367 65.8921 33.8633 65.9588 33.89C66.0254 33.91 66.1088 33.9433 66.2088 33.99C66.3154 34.03 66.3954 34.07 66.4488 34.11C66.5021 34.15 66.5621 34.2 66.6288 34.26C66.6954 34.32 66.7454 34.3867 66.7788 34.46C66.8521 34.6333 66.8888 34.8333 66.8888 35.06C66.8888 35.2933 66.8188 35.5133 66.6788 35.72C66.5388 35.9267 66.3454 36.0833 66.0988 36.19C65.6188 36.3967 65.0688 36.5 64.4488 36.5C63.6288 36.5 63.0354 36.3533 62.6688 36.06C62.3088 35.7733 62.1288 35.43 62.1288 35.03ZM63.4288 33.5C62.9954 33.9733 62.7788 34.4367 62.7788 34.89C62.7788 35.3433 62.9088 35.6933 63.1688 35.94C63.4354 36.1933 63.8388 36.32 64.3788 36.32C64.9188 36.32 65.3621 36.2167 65.7088 36.01C66.0621 35.8033 66.2388 35.4733 66.2388 35.02C66.2388 34.66 66.1254 34.3967 65.8988 34.23C65.6788 34.0633 65.3654 33.94 64.9588 33.86C64.1388 33.7067 63.6288 33.5867 63.4288 33.5ZM64.4288 29.09C64.0154 29.09 63.6821 29.22 63.4288 29.48C63.1754 29.7333 63.0488 30.1167 63.0488 30.63C63.0488 31.1433 63.1454 31.5267 63.3388 31.78C63.5321 32.0333 63.8454 32.16 64.2788 32.16C64.7188 32.16 65.0621 32.0167 65.3088 31.73C65.5621 31.4367 65.6888 31.0433 65.6888 30.55C65.6888 29.5767 65.2688 29.09 64.4288 29.09ZM68.7338 29.41V30.21C69.2605 29.4367 69.7772 29.0433 70.2838 29.03C70.3238 29.03 70.3638 29.03 70.4038 29.03L70.9638 29.1L70.7038 29.7C70.5772 29.5733 70.4138 29.51 70.2138 29.51C69.7272 29.5167 69.2338 29.84 68.7338 30.48V33.8L69.5838 33.85C69.5838 33.8567 69.5805 33.9067 69.5738 34L67.4738 34.01C67.4738 33.95 67.4772 33.9033 67.4838 33.87L68.0038 33.8C68.0572 33.7933 68.0838 33.7467 68.0838 33.66V29.32C68.0705 29.2733 68.0505 29.25 68.0238 29.25L67.4238 29.23L67.4338 29.09C67.7938 29.03 68.0672 29 68.2538 29C68.4405 29 68.5672 29.0433 68.6338 29.13C68.7005 29.2167 68.7338 29.31 68.7338 29.41ZM74.7719 33.62H74.7419C74.1419 33.9 73.5585 34.04 72.9919 34.04C72.1052 34.04 71.6352 33.69 71.5819 32.99C71.5752 32.9433 71.5719 32.9 71.5719 32.86C71.5719 32.3467 71.9085 32.0033 72.5819 31.83C72.9819 31.7433 73.7019 31.64 74.7419 31.52V30.64C74.7419 30.36 74.7085 30.12 74.6419 29.92C74.5752 29.72 74.5019 29.5733 74.4219 29.48C74.3419 29.38 74.2385 29.3033 74.1119 29.25C73.9519 29.1833 73.7719 29.15 73.5719 29.15C73.3785 29.15 73.1552 29.2 72.9019 29.3C72.5352 29.4533 72.2085 29.6467 71.9219 29.88L71.8819 30.66L71.6919 30.71V29.5L71.7919 29.46C72.3119 29.2333 72.7085 29.0967 72.9819 29.05C73.2552 29.0033 73.4552 28.98 73.5819 28.98C73.7085 28.9733 73.8285 28.9733 73.9419 28.98C74.0619 28.9867 74.2152 29.0167 74.4019 29.07C74.5885 29.1233 74.7485 29.2 74.8819 29.3C75.0219 29.3933 75.1419 29.5367 75.2419 29.73C75.3419 29.9233 75.3919 30.1533 75.3919 30.42V33.48C75.3919 33.6867 75.4452 33.79 75.5519 33.79L76.1619 33.82L76.1519 33.97C75.7785 34.0233 75.4452 34.05 75.1519 34.05C75.0719 34.0433 74.9885 34.0033 74.9019 33.93C74.8152 33.85 74.7719 33.7467 74.7719 33.62ZM73.1719 33.88C73.6652 33.88 74.1885 33.7067 74.7419 33.36V31.71C73.7419 31.7433 73.1119 31.8033 72.8519 31.89C72.5985 31.97 72.4219 32.1 72.3219 32.28C72.2285 32.4533 72.1819 32.6267 72.1819 32.8C72.1819 32.8333 72.1819 32.8667 72.1819 32.9C72.2019 33.2467 72.3052 33.4967 72.4919 33.65C72.6785 33.8033 72.9052 33.88 73.1719 33.88ZM76.6168 36.5L76.6268 36.36L77.1468 36.29C77.2068 36.2833 77.2368 36.2367 77.2368 36.15V29.33C77.2235 29.2767 77.2035 29.25 77.1768 29.25L76.5668 29.23L76.5768 29.09C76.9968 29.03 77.2835 29 77.4368 29C77.5901 29 77.7001 29.04 77.7668 29.12C77.8335 29.1933 77.8735 29.2767 77.8868 29.37C78.3068 29.0633 78.7535 28.91 79.2268 28.91C79.6801 28.91 80.1068 29.05 80.5068 29.33C80.7201 29.4833 80.8901 29.7233 81.0168 30.05C81.1501 30.3767 81.2168 30.7733 81.2168 31.24C81.2168 32.1267 80.9968 32.7933 80.5568 33.24C80.0568 33.7467 79.4101 34 78.6168 34C78.3835 34 78.1401 33.9833 77.8868 33.95V36.29L78.7368 36.34C78.7301 36.4333 78.7268 36.4833 78.7268 36.49L76.6168 36.5ZM77.8868 29.57V33.74C78.0801 33.7867 78.2901 33.81 78.5168 33.81C79.1701 33.81 79.6735 33.59 80.0268 33.15C80.3868 32.7033 80.5668 32.0833 80.5668 31.29C80.5668 30.3833 80.3868 29.7733 80.0268 29.46C79.7468 29.2133 79.4335 29.09 79.0868 29.09C78.7401 29.09 78.3401 29.25 77.8868 29.57ZM83.2772 26.91V29.62C84.1505 29.02 84.9405 28.8333 85.6472 29.06C85.8072 29.1067 85.9439 29.1767 86.0572 29.27C86.1772 29.3567 86.2805 29.49 86.3672 29.67C86.4539 29.85 86.4972 30.0667 86.4972 30.32V33.8L87.2472 33.85C87.2472 33.8567 87.2439 33.9067 87.2372 34L85.2372 34.01C85.2372 33.95 85.2405 33.9033 85.2472 33.87L85.7672 33.8C85.8072 33.8 85.8339 33.77 85.8472 33.71V30.58C85.8472 30.32 85.8105 30.0967 85.7372 29.91C85.6705 29.7167 85.5905 29.5767 85.4972 29.49C85.4039 29.4033 85.2939 29.3367 85.1672 29.29C84.9939 29.2233 84.8405 29.1967 84.7072 29.21C84.2739 29.2233 83.7972 29.4 83.2772 29.74V33.8L84.0272 33.85C84.0272 33.8567 84.0239 33.9067 84.0172 34L82.0172 34.01C82.0172 33.95 82.0205 33.9033 82.0272 33.87L82.5472 33.8C82.6005 33.7933 82.6272 33.7467 82.6272 33.66V26.86C82.6272 26.7867 82.6072 26.75 82.5672 26.75L81.9672 26.73L81.9772 26.59C82.3372 26.53 82.6105 26.5 82.7972 26.5C82.9839 26.5 83.1105 26.5433 83.1772 26.63C83.2439 26.7167 83.2772 26.81 83.2772 26.91ZM88.5164 36.5L88.4964 36.36L89.4264 36.24C89.4731 36.2333 89.5031 36.1867 89.5164 36.1L89.8464 34H89.5164L87.8464 29.35L87.8364 29.34C87.8031 29.26 87.7497 29.2133 87.6764 29.2L87.2264 29.16C87.2197 29.12 87.2164 29.07 87.2164 29.01L89.3164 29C89.3164 29.0067 89.3197 29.0567 89.3264 29.15L88.5464 29.21L90.0264 33.74L91.8864 29.34C91.9064 29.3 91.8931 29.2667 91.8464 29.24C91.8064 29.2133 91.7631 29.1967 91.7164 29.19L91.2764 29.16C91.2697 29.12 91.2664 29.07 91.2664 29.01L93.0964 29C93.0964 29.0067 93.0997 29.0567 93.1064 29.15L92.2164 29.24L90.1164 34L89.7364 36.29L90.6064 36.34C90.6197 36.4333 90.6264 36.4833 90.6264 36.49L88.5164 36.5Z" fill="black"/>
</svg>
