<svg width="46" height="36" viewBox="0 0 46 36" fill="none" xmlns="http://www.w3.org/2000/svg">
<path d="M31.0893 0.658691C25.6622 0.658691 21.249 4.75872 21.249 9.80059C21.249 10.1036 21.3305 10.4 21.3624 10.6963C14.6522 10.1003 8.71824 7.09688 4.68783 2.50288C4.49996 2.28224 4.20929 2.16368 3.90444 2.18344C3.60314 2.2032 3.33373 2.36457 3.18485 2.60826C2.33765 3.96176 1.85202 5.51944 1.85202 7.19239C1.85202 9.2177 2.63187 11.0718 3.83709 12.5932C3.60314 12.4977 3.34791 12.445 3.12814 12.3298C2.8481 12.1915 2.51135 12.198 2.2384 12.3495C1.96545 12.501 1.79885 12.7743 1.7953 13.0674V13.1728C1.7953 16.2783 3.52515 18.9754 6.07738 20.6286C6.04903 20.6253 6.02067 20.6352 5.99231 20.6286C5.68037 20.5792 5.36489 20.6813 5.15574 20.9019C4.9466 21.1226 4.87925 21.4289 4.97142 21.7088C5.98522 24.6364 8.5729 26.8725 11.7774 27.6892C9.22514 29.0987 6.26526 29.9286 3.07142 29.9286C2.38019 29.9286 1.71732 29.8957 1.05799 29.8232C0.632619 29.7705 0.224971 30.001 0.0831803 30.3765C-0.0621552 30.7519 0.0973594 31.1701 0.462471 31.3776C4.55668 33.8178 9.41656 35.2504 14.6415 35.2504C23.11 35.2504 29.7529 31.9638 34.2087 27.2677C38.6644 22.5716 40.9863 16.4726 40.9863 10.7754C40.9863 10.535 40.965 10.3012 40.9579 10.064C42.6204 8.88179 44.1057 7.49536 45.2683 5.87511C45.4988 5.56225 45.4739 5.14402 45.2081 4.85422C44.9458 4.56442 44.5027 4.4755 44.134 4.63687C43.6661 4.83117 43.1202 4.85093 42.631 5.00571C43.2762 4.20546 43.8292 3.34264 44.1624 2.37115C44.2758 2.03854 44.1517 1.67299 43.8575 1.45564C43.5633 1.24159 43.1521 1.21524 42.8295 1.39637C41.2805 2.2493 39.5648 2.84866 37.7534 3.21421C35.9952 1.68617 33.6805 0.658691 31.0893 0.658691ZM31.0893 2.34481C33.404 2.34481 35.4954 3.26361 36.9594 4.7159C37.1792 4.92667 37.5018 5.01559 37.8102 4.95301C38.9941 4.73566 40.1178 4.41622 41.2131 4.00458C40.5822 4.79494 39.8023 5.47005 38.8878 5.98049C38.473 6.1682 38.2781 6.61278 38.4305 7.01785C38.5794 7.41962 39.0331 7.65343 39.4833 7.56122C40.3907 7.45913 41.1989 7.11664 42.0639 6.90258C41.2876 7.68307 40.4368 8.38781 39.5116 9.01023C39.26 9.18147 39.1217 9.4581 39.143 9.7479C39.1572 10.0904 39.1713 10.4296 39.1713 10.7754C39.1713 16.0445 36.9949 21.7648 32.8475 26.1348C28.7001 30.5049 22.6102 33.5643 14.6415 33.5643C11.0223 33.5643 7.60518 32.82 4.51769 31.5093C8.34604 31.236 11.8766 29.978 14.7266 27.9C15.0244 27.6793 15.1414 27.3105 15.0208 26.9746C14.9003 26.6387 14.5671 26.4082 14.1878 26.3983C11.196 26.3489 8.68988 24.7319 7.3535 22.4465C7.40313 22.4465 7.44566 22.4465 7.49529 22.4465C8.39212 22.4465 9.27831 22.3411 10.1042 22.1303C10.5013 22.0216 10.7742 21.6791 10.76 21.2938C10.7458 20.9085 10.4516 20.5792 10.0475 20.4969C6.81824 19.8909 4.39716 17.4474 3.83709 14.4111C4.75164 14.7042 5.68746 14.9347 6.70126 14.9643C7.116 14.9874 7.49175 14.747 7.61936 14.3814C7.74697 14.0159 7.591 13.6141 7.24007 13.4099C5.08485 12.0696 3.66694 9.78742 3.66694 7.19239C3.66694 6.23077 3.93634 5.3482 4.29082 4.50514C8.82812 9.13208 15.1803 12.2046 22.355 12.5405C22.6385 12.5537 22.915 12.445 23.0994 12.2441C23.2837 12.04 23.3546 11.7699 23.2908 11.5131C23.1525 10.9664 23.0639 10.3868 23.0639 9.80059C23.0639 5.67093 26.6441 2.34481 31.0893 2.34481Z" fill="black"/>
</svg>
